<?xml version="1.0" encoding="utf-8"?>
<!-- Generator: Adobe Illustrator 28.2.0, SVG Export Plug-In . SVG Version: 6.00 Build 0)  -->
<svg version="1.1" id="Camada_1" xmlns="http://www.w3.org/2000/svg" xmlns:xlink="http://www.w3.org/1999/xlink" x="0px" y="0px"
	 viewBox="0 0 2000 2000" style="enable-background:new 0 0 2000 2000;" xml:space="preserve">
<style type="text/css">
	.st0{clip-path:url(#SVGID_00000147195124285623520180000000183723540887341238_);}
	.st1{clip-path:url(#SVGID_00000021111682923014527750000017963781726213809330_);}
</style>
<g>
	<g>
		<g>
			<defs>
				<path id="SVGID_1_" d="M518.26,968.07c-130.58-53.23,27.45-158.9,43.52-178.04c13.34-15.89,6.79-40.23-12.91-46.71
					c-49.8-16.39-115.23-29.49-152.8-15.26c-153.26,58.02-232.97,300.78,4.65,411.65C643.28,1252.88,629.99,1013.61,518.26,968.07z"
					/>
			</defs>
			<use xlink:href="#SVGID_1_"  style="overflow:visible;"/>
			<clipPath id="SVGID_00000111184016658103365280000014798409241945905336_">
				<use xlink:href="#SVGID_1_"  style="overflow:visible;"/>
			</clipPath>
			
				<rect x="-280.9" y="287.18" style="clip-path:url(#SVGID_00000111184016658103365280000014798409241945905336_);" width="2534.49" height="1425.65"/>
		</g>
		<g>
			<defs>
				<path id="SVGID_00000006676776697419174970000001794953631807686069_" d="M1592.61,973.04c-77.04,0-293.43,54.24-463.04,100.23
					c-60.04-36.14-113.06-82.48-169.13-131.49c-48.61-42.49-98.88-86.42-157.54-127.06c-96.33-66.75-256.05-134.31-374.93-134.31
					c-83.44,0-138.51,52.35-170.02,96.26c-39.4,54.92-57.04,117.62-57.04,155.39c0,79.98,41.34,154.23,116.39,209.08
					c73.21,53.51,170.49,82.97,273.9,82.97c72.31,0,148.74-8.73,222.65-17.18c69.31-7.92,134.77-15.4,192.77-15.4
					c113.82,0,205.01,21.14,284.98,45.87c4.49,1.49,9.01,2.88,13.54,4.27c22.9,7.3,44.95,14.8,66.34,22.1
					c84.01,28.7,163.36,55.81,254.52,55.81c85.4,0,134.71-42.63,144.09-123.7c0.01-0.05,0.01-0.11,0.02-0.16
					c0.2-1.71,0.38-3.44,0.54-5.18c0.14-1.44,0.26-2.9,0.37-4.37c0.07-1,0.15-1.99,0.21-3c0.13-2.06,0.23-4.16,0.31-6.28
					c0.03-0.71,0.06-1.41,0.09-2.12c0.09-2.86,0.14-5.78,0.14-8.76C1771.77,1032.71,1681.78,973.04,1592.61,973.04z M1626,1300.45
					c-87.99,0-165.88-26.61-248.34-54.78c-19.69-6.73-39.92-13.62-60.86-20.38c-0.07-0.02-0.12-0.06-0.19-0.08
					c-94.28-30.3-179.75-80.63-258.46-140.3c-40.59-30.77-80.78-62.07-121.7-92.49c-0.14-0.11-0.35-0.08-0.46,0.07
					c-0.1,0.13-0.08,0.32,0.04,0.43c71.88,69.42,147.11,137.67,233.53,188.71c4.82,2.85,9.69,5.6,14.58,8.33
					c-53.07-10.59-111.46-17.56-177.52-17.56c-59.09,0-125.08,7.54-194.94,15.52c-73.38,8.39-149.26,17.06-220.48,17.06
					c-99.38,0-192.64-28.16-262.6-79.29c-70-51.15-108.55-119.92-108.55-193.63c0-34.71,16.53-92.77,53.45-144.24
					c28.89-40.27,79.14-88.28,154.46-88.28c113.73,0,272.44,67.45,364.03,130.9c57.77,40.03,107.63,83.6,155.84,125.74
					c57.8,50.51,112.39,98.22,175.33,135.54c0.01,0,0.01,0.01,0.02,0.01c0.03,0.02,0.05,0.03,0.08,0.05c0,0,0.01,0,0.01,0
					c0,0,0,0,0,0c233.78,142,436.03,192.59,547.37,192.59c12.93,0,24.46-1.31,34.73-3.89
					C1685.37,1293.83,1658.98,1300.45,1626,1300.45z M1632.54,1226.75c-64.35-135.07-162.65-70.72-325.29-105.37
					c-23.21-4.95-33.03-42.79,41.42-65.12c188.41-56.51,343.48-67,369.08,69.72C1736.49,1226.05,1651.78,1267.14,1632.54,1226.75z"
					/>
			</defs>
			<use xlink:href="#SVGID_00000006676776697419174970000001794953631807686069_"  style="overflow:visible;"/>
			<clipPath id="SVGID_00000146457331193433584090000005578424553530909107_">
				<use xlink:href="#SVGID_00000006676776697419174970000001794953631807686069_"  style="overflow:visible;"/>
			</clipPath>
			
				<rect x="-280.9" y="287.18" style="clip-path:url(#SVGID_00000146457331193433584090000005578424553530909107_);" width="2534.49" height="1425.65"/>
		</g>
	</g>
	<g>
		<path d="M1797.14,988.81c-1.3-3.37-3.14-6.25-5.54-8.65c-2.39-2.4-5.28-4.24-8.65-5.54c-3.37-1.3-7.1-1.95-11.19-1.95
			c-4.09,0-7.82,0.65-11.19,1.95c-3.37,1.3-6.25,3.14-8.65,5.54c-2.39,2.39-4.24,5.28-5.54,8.65c-1.3,3.37-1.95,7.1-1.95,11.19
			c0,4.09,0.65,7.82,1.95,11.19c1.3,3.37,3.14,6.25,5.54,8.65c2.4,2.39,5.28,4.24,8.65,5.54c3.37,1.3,7.1,1.95,11.19,1.95
			c4.09,0,7.82-0.65,11.19-1.95c3.37-1.3,6.25-3.14,8.65-5.54c2.4-2.39,4.24-5.28,5.54-8.65c1.3-3.37,1.95-7.1,1.95-11.19
			C1799.09,995.91,1798.44,992.18,1797.14,988.81z M1793.29,1009.66c-1.12,2.89-2.69,5.38-4.72,7.45c-2.02,2.07-4.45,3.67-7.3,4.79
			c-2.84,1.12-6.01,1.68-9.51,1.68c-3.49,0-6.66-0.56-9.51-1.68c-2.84-1.12-5.28-2.72-7.3-4.79c-2.02-2.07-3.59-4.55-4.72-7.45
			c-1.12-2.89-1.68-6.11-1.68-9.66c0-3.54,0.56-6.76,1.68-9.66c1.12-2.89,2.69-5.38,4.72-7.45c2.02-2.07,4.45-3.67,7.3-4.79
			c2.84-1.12,6.01-1.68,9.51-1.68c3.49,0,6.66,0.56,9.51,1.68c2.84,1.12,5.28,2.72,7.3,4.79c2.02,2.07,3.59,4.55,4.72,7.45
			c1.12,2.89,1.68,6.11,1.68,9.66C1794.97,1003.54,1794.41,1006.76,1793.29,1009.66z"/>
		<path d="M1784.12,994.39c0-2.64-0.84-4.62-2.51-5.91c-1.67-1.3-4.38-1.95-8.12-1.95h-8.46h-3.22v2.99v9.73v2.99v10.48h3.22v-10.48
			h6.15l8.44,10.48h3.97l-8.52-10.5c2.99-0.12,5.21-0.77,6.65-1.96C1783.32,998.94,1784.12,996.98,1784.12,994.39z M1779.18,998.02
			c-1.05,0.82-2.9,1.24-5.54,1.24h-8.61v-9.73h8.61c2.64,0,4.49,0.4,5.54,1.2c1.05,0.8,1.57,2.02,1.57,3.67
			C1780.75,995.98,1780.22,997.19,1779.18,998.02z"/>
	</g>
</g>
</svg>
