<?xml version="1.0" encoding="utf-8"?>
<!-- Generator: Adobe Illustrator 28.2.0, SVG Export Plug-In . SVG Version: 6.00 Build 0)  -->
<svg version="1.1" id="Camada_1" xmlns="http://www.w3.org/2000/svg" xmlns:xlink="http://www.w3.org/1999/xlink" x="0px" y="0px"
	 viewBox="0 0 2000 2000" style="enable-background:new 0 0 2000 2000;" xml:space="preserve">
<style type="text/css">
	.st0{clip-path:url(#SVGID_00000175321090754918568840000006297484658203897235_);}
	.st1{clip-path:url(#SVGID_00000052782418054382982750000007062057928539938225_);}
</style>
<g>
	<g>
		<polygon points="261.71,882.01 261.71,863.3 261.71,856.72 255.33,858.36 249.78,859.78 245.94,860.77 245.94,864.73 
			245.94,882.01 231.2,882.01 226.1,882.01 226.1,887.11 226.1,892.35 226.1,897.46 231.2,897.46 245.94,897.46 245.94,966.49 
			245.94,971.59 251.05,971.59 256.6,971.59 261.71,971.59 261.71,966.49 261.71,897.46 276.45,897.46 281.55,897.46 281.55,892.35 
			281.55,887.11 281.55,882.01 276.45,882.01 		"/>
		<path d="M354.26,882.01h-5.11v5.11v43.5c0,16.98-8.83,27.12-23.63,27.12c-19.57,0-21.09-17.23-21.09-22.52v-48.1v-5.11h-5.11
			h-5.56h-5.11v5.11v48.1c0,17.51,9.53,37.97,36.38,37.97c9.55,0,17.86-2.81,24.1-7.91v1.22v5.11h5.11h5.56h5.11v-5.11v-79.37v-5.11
			h-5.11H354.26z"/>
		<path d="M454.74,850.26h-5.11v5.11v36.52c-8.16-7.34-19.04-11.46-31.09-11.46c-26.6,0-45.9,19.51-45.9,46.38
			c0,26.87,19.31,46.38,45.9,46.38c12.05,0,22.93-4.12,31.09-11.47v4.77v5.11h5.11h5.56h5.11v-5.11V855.36v-5.11h-5.11H454.74z
			 M449.64,926.8c0,18.21-12.59,30.93-30.61,30.93s-30.61-12.72-30.61-30.93c0-18.21,12.59-30.93,30.61-30.93
			S449.64,908.59,449.64,926.8z"/>
		<path d="M552.69,893.62c-8.51-8.51-20.3-13.2-33.18-13.2c-12.88,0-24.66,4.69-33.18,13.2c-8.51,8.51-13.2,20.3-13.2,33.18
			c0,12.88,4.69,24.66,13.2,33.18c8.51,8.51,20.3,13.2,33.18,13.2c12.88,0,24.66-4.69,33.18-13.2c8.51-8.51,13.2-20.3,13.2-33.18
			C565.89,913.92,561.2,902.14,552.69,893.62z M550.13,926.8c0,17.92-12.87,30.93-30.61,30.93c-17.74,0-30.61-13.01-30.61-30.93
			c0-17.92,12.87-30.93,30.61-30.93C537.25,895.87,550.13,908.88,550.13,926.8z"/>
	</g>
	<g>
		<path d="M612.83,908.23c0-11.59,11.59-17.46,20.95-17.46c8.89,0,15.24,2.54,21.11,8.26l2.86-4.6c-6.51-6.03-13.97-8.89-23.97-8.89
			c-12.06,0-26.51,7.46-26.51,22.7c0,30.48,48.1,12.38,48.1,36.99c0,11.43-11.59,17.62-23.02,17.62c-10.64,0-19.21-3.97-25.88-14.29
			l-2.86,4.76c6.67,10.64,16.83,14.76,28.73,14.76c13.34,0,28.57-7.3,28.57-22.86C660.93,914.73,612.83,932.83,612.83,908.23z"/>
		<path d="M715.06,885.52c-23.81,0-41.27,17.46-41.27,41.27s17.46,41.27,41.27,41.27s41.27-17.46,41.27-41.27
			S738.87,885.52,715.06,885.52z M715.06,962.83c-20.64,0-35.72-15.24-35.72-36.04c0-20.8,15.08-36.04,35.72-36.04
			c20.64,0,35.72,15.24,35.72,36.04C750.78,947.59,735.7,962.83,715.06,962.83z"/>
		<path d="M816.02,885.52c-16.35,0-29.53,8.26-36.19,21.27v-51.43h-5.56v111.12h5.56V946.8c6.67,13.02,19.84,21.27,36.19,21.27
			c23.81,0,40.8-17.46,40.8-41.27S839.83,885.52,816.02,885.52z M815.55,962.83c-20.8,0-35.72-15.24-35.72-36.04
			c0-20.8,14.92-36.04,35.72-36.04s35.72,15.24,35.72,36.04C851.26,947.59,836.34,962.83,815.55,962.83z"/>
		<path d="M880.63,905.69h-0.32v-18.57h-5.56v79.37h5.56v-43.34c0-18.26,13.81-32.38,28.89-32.38h1.75v-5.24h-1.43
			C896.19,885.52,884.44,894.57,880.63,905.69z"/>
		<path d="M989.85,926.64c0-24.13-15.87-41.12-37.78-41.12c-21.91,0-38.1,16.99-38.1,41.12c0,24.13,16.19,41.43,38.1,41.43
			c17.46,0,29.84-8.41,35.88-22.54h-5.87c-5.56,10.95-15.56,17.3-30,17.3c-18.57,0-32.23-14.76-32.54-34.92h70.32V926.64z
			 M919.53,922.83c1.43-19.05,14.92-32.07,32.54-32.07c17.62,0,30.95,13.02,32.23,32.07H919.53z"/>
	</g>
	<path d="M336.27,1026.2c-20.95,0-39.2,7.77-52.72,21.29v-16.22H226.1v241.3h57.45v-88.54c13.52,13.52,31.77,21.29,52.72,21.29
		c45.62,0,78.4-37.17,78.4-89.56C414.67,1063.37,381.89,1026.2,336.27,1026.2z M320.39,1153.27c-20.95,0-36.84-16.56-36.84-37.51
		c0-20.95,15.88-37.51,36.84-37.51c20.95,0,36.84,16.56,36.84,37.51C357.22,1136.71,341.34,1153.27,320.39,1153.27z"/>
	<path d="M555.93,1047.49c-13.52-13.52-31.77-21.29-52.72-21.29c-45.62,0-78.4,37.17-78.4,89.56c0,52.38,32.78,89.56,78.4,89.56
		c20.95,0,39.2-7.77,52.72-21.29v16.22h57.45v-168.98h-57.45V1047.49z M519.09,1153.27c-20.95,0-36.84-16.56-36.84-37.51
		c0-20.95,15.88-37.51,36.84-37.51c20.95,0,36.84,16.56,36.84,37.51C555.93,1136.71,540.05,1153.27,519.09,1153.27z"/>
	<path d="M921.92,1026.2c-22.98,0-43.6,8.45-53.73,23.32c-12.84-18.59-32.1-23.32-44.95-23.32c-19.94,0-37.18,8.11-47.65,22.98
		v-17.91h-57.45v168.98h57.45v-88.88c0-18.93,10.14-29.74,26.36-29.74c14.19,0,23.32,8.79,23.32,29.06v89.56h57.45v-88.88
		c0-18.93,10.14-29.74,26.36-29.74c14.19,0,23.32,8.79,23.32,29.06v89.56h57.45v-92.94C989.85,1046.82,955.72,1026.2,921.92,1026.2z
		"/>
	<path d="M1490.67,1047.49c-13.52-13.52-31.77-21.29-52.72-21.29c-45.62,0-78.41,37.17-78.41,89.56c0,52.38,32.78,89.56,78.41,89.56
		c20.95,0,39.2-7.77,52.72-21.29v16.22h57.45v-168.98h-57.45V1047.49z M1453.84,1153.27c-20.95,0-36.84-16.56-36.84-37.51
		c0-20.95,15.88-37.51,36.84-37.51c20.95,0,36.84,16.56,36.84,37.51C1490.67,1136.71,1474.79,1153.27,1453.84,1153.27z"/>
	<path d="M1626.52,1078.58c0-6.08,6.08-10.48,12.5-10.48c16.56,0,32.11,9.12,45.29,19.26l23.32-37.85
		c-22.98-15.21-45.62-23.32-68.6-23.32c-34.81,0-69.96,13.52-69.96,54.75c0,54.41,83.81,51.37,83.81,71.65
		c0,8.11-8.45,10.81-12.17,10.81c-18.92,0-39.88-9.12-55.09-23.32l-23.99,38.53c18.93,15.88,49.68,26.7,79.08,26.7
		c35.15,0,69.62-13.18,69.62-55.09C1710.33,1095.82,1626.52,1098.86,1626.52,1078.58z"/>
	<path d="M637.03,990.66v209.58h57.45V990.33h-54.16C639.23,990.45,638.15,990.59,637.03,990.66z"/>
	<path d="M1282.16,1026.2c-20.28,0-40.89,8.79-50.69,23.32v-61.63c-11.82,0.8-23.6,1.3-35.25,1.3c-7.47,0-14.88-0.36-22.2-0.99
		v212.05h57.45v-88.88c0-18.93,12.5-29.74,28.73-29.74c15.55,0,26.7,8.79,26.7,29.06v89.56h57.45v-92.94
		C1344.34,1039.38,1303.11,1026.2,1282.16,1026.2z"/>
	<path d="M1092.91,1200.25h57.45v-215.2c-20.37-3.74-39.73-10-57.45-18.52V1200.25z"/>
	<circle cx="1041.68" cy="997.68" r="28.73"/>
	<path d="M1012.96,1029.03v171.22h57.45v-171.22c-7.97,6.1-17.92,9.73-28.73,9.73C1030.88,1038.75,1020.92,1035.12,1012.96,1029.03z
		"/>
	<g>
		<defs>
			<path id="SVGID_1_" d="M1164.45,852.7c-56.87-23.18,11.96-69.2,18.95-77.53c5.81-6.92,2.96-17.52-5.62-20.34
				c-21.69-7.14-50.18-12.84-66.54-6.65c-66.74,25.27-101.45,130.98,2.02,179.26C1218.9,976.73,1213.11,872.54,1164.45,852.7z"/>
		</defs>
		<use xlink:href="#SVGID_1_"  style="overflow:visible;"/>
		<clipPath id="SVGID_00000100381354516791721150000009028429068263777949_">
			<use xlink:href="#SVGID_1_"  style="overflow:visible;"/>
		</clipPath>
		
			<rect x="816.43" y="556.18" style="clip-path:url(#SVGID_00000100381354516791721150000009028429068263777949_);" width="1103.73" height="620.85"/>
	</g>
	<g>
		<defs>
			<path id="SVGID_00000046314536302036003070000017138518736124286643_" d="M1632.31,854.87c-33.55,0-127.79,23.62-201.64,43.65
				c-26.15-15.74-49.24-35.92-73.66-57.26c-21.17-18.5-43.06-37.63-68.61-55.33c-41.95-29.07-111.5-58.49-163.28-58.49
				c-36.34,0-60.32,22.8-74.04,41.92c-17.16,23.92-24.84,51.22-24.84,67.67c0,34.83,18,67.17,50.69,91.05
				c31.88,23.3,74.24,36.13,119.28,36.13c31.49,0,64.77-3.8,96.96-7.48c30.18-3.45,58.69-6.71,83.95-6.71
				c49.57,0,89.28,9.2,124.1,19.97c1.95,0.65,3.92,1.25,5.9,1.86c9.97,3.18,19.58,6.44,28.89,9.63
				c36.58,12.5,71.14,24.3,110.84,24.3c37.19,0,58.67-18.56,62.75-53.87c0-0.02,0.01-0.05,0.01-0.07c0.09-0.75,0.16-1.5,0.23-2.26
				c0.06-0.63,0.11-1.26,0.16-1.9c0.03-0.43,0.07-0.87,0.09-1.31c0.06-0.9,0.1-1.81,0.13-2.74c0.01-0.31,0.03-0.61,0.04-0.92
				c0.04-1.25,0.06-2.52,0.06-3.82C1710.33,880.85,1671.15,854.87,1632.31,854.87z M1646.86,997.45
				c-38.32,0-72.24-11.59-108.15-23.86c-8.57-2.93-17.39-5.93-26.5-8.87c-0.03-0.01-0.05-0.03-0.08-0.04
				c-41.06-13.19-78.28-35.11-112.55-61.1c-17.68-13.4-35.18-27.03-53-40.28c-0.06-0.05-0.15-0.03-0.2,0.03
				c-0.04,0.06-0.03,0.14,0.02,0.19c31.3,30.23,64.06,59.95,101.7,82.18c2.1,1.24,4.22,2.44,6.35,3.63
				c-23.11-4.61-48.54-7.65-77.31-7.65c-25.73,0-54.47,3.28-84.89,6.76c-31.96,3.65-65,7.43-96.01,7.43
				c-43.28,0-83.89-12.26-114.36-34.53c-30.48-22.28-47.27-52.22-47.27-84.32c0-15.12,7.2-40.4,23.28-62.81
				c12.58-17.54,34.47-38.44,67.27-38.44c49.53,0,118.64,29.37,158.53,57.01c25.16,17.43,46.87,36.41,67.87,54.76
				c25.17,22,48.94,42.77,76.35,59.03c0,0,0,0,0.01,0.01c0.01,0.01,0.02,0.01,0.04,0.02c0,0,0,0,0,0c0,0,0,0,0,0
				c101.81,61.84,189.89,83.87,238.37,83.87c5.63,0,10.65-0.57,15.12-1.7C1672.71,994.56,1661.22,997.45,1646.86,997.45z
				 M1649.7,965.36c-28.02-58.82-70.83-30.8-141.66-45.89c-10.11-2.15-14.38-18.64,18.04-28.36
				c82.05-24.61,149.58-29.18,160.73,30.36C1694.97,965.05,1658.08,982.94,1649.7,965.36z"/>
		</defs>
		<use xlink:href="#SVGID_00000046314536302036003070000017138518736124286643_"  style="overflow:visible;"/>
		<clipPath id="SVGID_00000078046551825758642100000013742618887963863442_">
			<use xlink:href="#SVGID_00000046314536302036003070000017138518736124286643_"  style="overflow:visible;"/>
		</clipPath>
		
			<rect x="816.43" y="556.18" style="clip-path:url(#SVGID_00000078046551825758642100000013742618887963863442_);" width="1103.73" height="620.85"/>
	</g>
	<g>
		<path d="M1772.06,1041.45c-1.23-3.19-2.97-5.91-5.24-8.18c-2.26-2.27-4.99-4.01-8.18-5.24c-3.19-1.23-6.71-1.84-10.58-1.84
			c-3.87,0-7.4,0.61-10.58,1.84c-3.19,1.23-5.91,2.97-8.18,5.24c-2.26,2.26-4.01,4.99-5.24,8.18c-1.23,3.18-1.84,6.71-1.84,10.58
			c0,3.87,0.61,7.4,1.84,10.58c1.23,3.19,2.97,5.91,5.24,8.18c2.26,2.26,4.99,4.01,8.18,5.24c3.19,1.23,6.71,1.84,10.58,1.84
			c3.87,0,7.4-0.61,10.58-1.84c3.19-1.23,5.91-2.97,8.18-5.24c2.26-2.26,4.01-4.99,5.24-8.18c1.23-3.19,1.84-6.71,1.84-10.58
			C1773.9,1048.17,1773.29,1044.64,1772.06,1041.45z M1768.42,1061.17c-1.06,2.74-2.55,5.08-4.46,7.04
			c-1.91,1.96-4.21,3.47-6.9,4.53c-2.69,1.06-5.69,1.59-8.99,1.59c-3.3,0-6.3-0.53-8.99-1.59c-2.69-1.06-4.99-2.57-6.9-4.53
			c-1.91-1.96-3.4-4.31-4.46-7.04c-1.06-2.74-1.59-5.78-1.59-9.13c0-3.35,0.53-6.39,1.59-9.13c1.06-2.74,2.55-5.08,4.46-7.04
			c1.91-1.96,4.21-3.47,6.9-4.53c2.69-1.06,5.69-1.59,8.99-1.59c3.3,0,6.3,0.53,8.99,1.59c2.69,1.06,4.99,2.57,6.9,4.53
			c1.91,1.96,3.4,4.31,4.46,7.04c1.06,2.74,1.59,5.78,1.59,9.13C1770.01,1055.39,1769.48,1058.43,1768.42,1061.17z"/>
		<path d="M1759.74,1046.73c0-2.5-0.79-4.36-2.37-5.59c-1.58-1.23-4.14-1.84-7.68-1.84h-8h-3.04v2.83v9.2v2.83v9.91h3.04v-9.91h5.82
			l7.98,9.91h3.75l-8.06-9.93c2.82-0.11,4.93-0.72,6.29-1.85C1758.99,1051.03,1759.74,1049.18,1759.74,1046.73z M1755.07,1050.16
			c-0.99,0.78-2.74,1.17-5.24,1.17h-8.14v-9.2h8.14c2.5,0,4.25,0.38,5.24,1.13c0.99,0.76,1.49,1.91,1.49,3.47
			C1756.56,1048.24,1756.06,1049.38,1755.07,1050.16z"/>
	</g>
</g>
</svg>
